<?xml version="1.0" encoding="UTF-8" standalone="no"?>
<!-- Created with Inkscape (http://www.inkscape.org/) -->

<svg
   width="40.363998mm"
   height="5.04mm"
   viewBox="0 0 40.363998 5.04"
   version="1.1"
   id="svg1"
   xml:space="preserve"
   inkscape:version="1.3.1 (9b9bdc1480, 2023-11-25, custom)"
   sodipodi:docname="nextword-logo.svg"
   xmlns:inkscape="http://www.inkscape.org/namespaces/inkscape"
   xmlns:sodipodi="http://sodipodi.sourceforge.net/DTD/sodipodi-0.dtd"
   xmlns="http://www.w3.org/2000/svg"
   xmlns:svg="http://www.w3.org/2000/svg"><sodipodi:namedview
     id="namedview1"
     pagecolor="#505050"
     bordercolor="#eeeeee"
     borderopacity="1"
     inkscape:showpageshadow="0"
     inkscape:pageopacity="0"
     inkscape:pagecheckerboard="0"
     inkscape:deskcolor="#505050"
     inkscape:document-units="mm"
     inkscape:zoom="2.3786088"
     inkscape:cx="105.94428"
     inkscape:cy="76.935728"
     inkscape:window-width="1920"
     inkscape:window-height="1052"
     inkscape:window-x="1920"
     inkscape:window-y="0"
     inkscape:window-maximized="1"
     inkscape:current-layer="layer1" /><defs
     id="defs1"><linearGradient
       gradientUnits="userSpaceOnUse"
       id=":r8:paint0_linear_408_134"
       x1="109"
       x2="144.5"
       y1="116.5"
       y2="160.5"><stop
         stop-color="white"
         id="stop2" /><stop
         offset="1"
         stop-color="white"
         stop-opacity="0"
         id="stop3" /></linearGradient><linearGradient
       gradientUnits="userSpaceOnUse"
       id=":r8:paint1_linear_408_134"
       x1="121"
       x2="120.799"
       y1="54"
       y2="106.875"><stop
         stop-color="white"
         id="stop4" /><stop
         offset="1"
         stop-color="white"
         stop-opacity="0"
         id="stop5" /></linearGradient></defs><g
     inkscape:label="Layer 1"
     inkscape:groupmode="layer"
     id="layer1"><g
       id="g1"
       transform="translate(-91.592932,-134.18161)"><path
         d="m 107.38245,134.36558 h 4.13723 v 0.76363 h -1.6412 v 4.01732 h -0.82066 v -4.01732 h -1.67537 z"
         fill="var(--geist-foreground)"
         id="path1"
         style="stroke-width:0.0602848" /><path
         d="m 100.57828,134.36558 v 0.76363 h -3.316258 v 1.22843 h 2.666934 v 0.76362 h -2.666934 v 1.26164 h 3.316258 v 0.76363 h -4.136861 v -4.01732 h -3.43e-4 v -0.76363 z"
         fill="var(--geist-foreground)"
         id="path2"
         style="stroke-width:0.0602848" /><path
         d="m 102.64412,134.36758 h -1.07391 l 3.84653,4.78094 h 1.07705 l -1.92351,-2.38883 1.92044,-2.38846 -1.07398,0.002 -1.38414,1.71906 z"
         fill="var(--geist-foreground)"
         id="path3"
         style="stroke-width:0.0602848" /><path
         d="m 103.74613,137.78263 -0.5378,-0.66867 -1.64119,2.03821 h 1.07698 z"
         fill="var(--geist-foreground)"
         id="path4"
         style="stroke-width:0.0602848" /><path
         clip-rule="evenodd"
         d="m 96.470175,139.14653 -3.851711,-4.78294 h -1.025752 v 4.78094 h 0.820603 v -3.75902 l 3.025972,3.76102 z"
         fill="var(--geist-foreground)"
         fill-rule="evenodd"
         id="path5"
         style="stroke-width:0.0602848" /><path
         d="m 106.92512,139.35628 h 0.67268 l 1.03539,4.16136 1.03209,-4.16136 h 0.74852 l 1.03539,4.16136 1.0321,-4.16136 h 0.67597 l -1.23654,4.92306 h -0.83754 l -1.03869,-4.27346 -1.04858,4.27346 h -0.83755 z m 8.12486,1.65531 q -0.48802,0 -0.7716,0.3825 -0.28357,0.37921 -0.28357,1.04199 0,0.66278 0.28028,1.04529 0.28358,0.3792 0.77489,0.3792 0.48472,0 0.7683,-0.3825 0.28358,-0.3825 0.28358,-1.04199 0,-0.65619 -0.28358,-1.03869 -0.28358,-0.3858 -0.7683,-0.3858 z m 0,-0.5144 q 0.79138,0 1.24313,0.5144 0.45175,0.5144 0.45175,1.42449 0,0.90679 -0.45175,1.42449 -0.45175,0.5144 -1.24313,0.5144 -0.79468,0 -1.24643,-0.5144 -0.44845,-0.5177 -0.44845,-1.42449 0,-0.91009 0.44845,-1.42449 0.45175,-0.5144 1.24643,-0.5144 z m 4.84062,0.65619 q -0.10222,-0.0593 -0.22422,-0.0857 -0.11871,-0.0297 -0.26379,-0.0297 -0.5144,0 -0.79139,0.33634 -0.27368,0.33304 -0.27368,0.95955 v 1.94548 h -0.61003 v -3.69312 h 0.61003 v 0.57376 q 0.19125,-0.33634 0.49791,-0.49791 0.30666,-0.16488 0.74522,-0.16488 0.0626,0 0.13849,0.01 0.0758,0.007 0.16817,0.0231 z m 2.9479,-0.007 v -1.99824 h 0.60673 v 5.13079 h -0.60673 v -0.55397 q -0.19125,0.32975 -0.48472,0.49132 -0.29017,0.15828 -0.69905,0.15828 -0.66938,0 -1.09145,-0.53419 -0.41877,-0.53418 -0.41877,-1.4047 0,-0.87052 0.41877,-1.4047 0.42207,-0.53419 1.09145,-0.53419 0.40888,0 0.69905,0.16158 0.29347,0.15827 0.48472,0.48802 z m -2.06748,1.28929 q 0,0.66938 0.27368,1.05188 0.27699,0.3792 0.75841,0.3792 0.48143,0 0.75841,-0.3792 0.27698,-0.3825 0.27698,-1.05188 0,-0.66938 -0.27698,-1.04858 -0.27698,-0.3825 -0.75841,-0.3825 -0.48142,0 -0.75841,0.3825 -0.27368,0.3792 -0.27368,1.04858 z m 6.2783,-1.74104 v 0.57375 q -0.2572,-0.1319 -0.53419,-0.19784 -0.27698,-0.066 -0.57375,-0.066 -0.45175,0 -0.67927,0.13849 -0.22422,0.13849 -0.22422,0.41548 0,0.21103 0.16157,0.33304 0.16158,0.1187 0.64959,0.22752 l 0.20774,0.0462 q 0.6463,0.13849 0.91669,0.3924 0.27368,0.2506 0.27368,0.70235 0,0.5144 -0.40888,0.81446 -0.40558,0.30007 -1.11783,0.30007 -0.29676,0 -0.61991,-0.0594 -0.31985,-0.056 -0.67597,-0.17146 v -0.62651 q 0.33633,0.17476 0.66278,0.26379 0.32644,0.0857 0.64629,0.0857 0.42867,0 0.65949,-0.14508 0.23082,-0.14839 0.23082,-0.41548 0,-0.24731 -0.16817,-0.3792 -0.16487,-0.1319 -0.72873,-0.2539 l -0.21104,-0.0495 q -0.56386,-0.1187 -0.81446,-0.36271 -0.2506,-0.24731 -0.2506,-0.67597 0,-0.521 0.36931,-0.80458 0.36931,-0.28358 1.04858,-0.28358 0.33634,0 0.63311,0.0495 0.29676,0.0495 0.54737,0.14838 z"
         id="text1"
         style="font-size:6.75313px;line-height:1.25;fill:#333333;stroke-width:0.168829"
         transform="scale(1.0370145,0.96430667)"
         aria-label="Words" /></g></g></svg>
